<mxfile host="app.diagrams.net" modified="2023-01-17T18:18:13.835Z" agent="5.0 (Windows NT 10.0; Win64; x64) AppleWebKit/537.36 (KHTML, like Gecko) Chrome/99.0.4844.74 Safari/537.36" etag="ABDJzqdGho74O_9mBygP" version="20.8.5" type="github" pages="4">
  <diagram id="6a731a19-8d31-9384-78a2-239565b7b9f0" name="Page-1">
    <mxGraphModel dx="1120" dy="-343" grid="1" gridSize="10" guides="1" tooltips="1" connect="1" arrows="1" fold="1" page="1" pageScale="1" pageWidth="1169" pageHeight="827" background="none" math="0" shadow="0">
      <root>
        <mxCell id="0" />
        <mxCell id="1" parent="0" />
        <mxCell id="56" value="CONTABILIDAD" style="strokeColor=#BAC8D3;fillColor=#23445D;fontSize=24;strokeWidth=2;fontFamily=Helvetica;html=1;fontColor=#FFFFFF;fontStyle=0;spacingBottom=8;spacingRight=0;spacingLeft=83;" parent="1" vertex="1">
          <mxGeometry x="154" y="850.5" width="2030" height="80" as="geometry" />
        </mxCell>
        <mxCell id="57" value="ATMS" style="strokeColor=#BAC8D3;fillColor=#23445D;fontSize=24;strokeWidth=2;horizontal=0;fontFamily=Helvetica;html=1;fontColor=#FFFFFF;fontStyle=0" parent="1" vertex="1">
          <mxGeometry x="154" y="930.5" width="50" height="300" as="geometry" />
        </mxCell>
        <mxCell id="58" value="ATM" style="strokeColor=#BAC8D3;fillColor=#5d7f99;fontSize=19;strokeWidth=2;horizontal=0;fontFamily=Helvetica;html=1;labelBackgroundColor=none;fontColor=#FFFFFF;" parent="1" vertex="1">
          <mxGeometry x="204" y="930.5" width="40" height="100" as="geometry" />
        </mxCell>
        <mxCell id="59" value="v 1.0" style="strokeColor=#BAC8D3;fillColor=#5d7f99;fontSize=19;strokeWidth=2;fontFamily=Helvetica;html=1;labelBackgroundColor=none;fontColor=#FFFFFF;" parent="1" vertex="1">
          <mxGeometry x="154" y="850.5" width="90" height="80" as="geometry" />
        </mxCell>
        <mxCell id="NTstDmenuC4A9_aLlz0u-143" value="" style="edgeStyle=orthogonalEdgeStyle;rounded=0;orthogonalLoop=1;jettySize=auto;html=1;" parent="1" source="60" target="69" edge="1">
          <mxGeometry relative="1" as="geometry" />
        </mxCell>
        <mxCell id="60" value="VENTANILLA" style="strokeColor=#BAC8D3;fillColor=#5d7f99;fontSize=19;strokeWidth=2;horizontal=0;fontFamily=Helvetica;html=1;labelBackgroundColor=none;fontColor=#FFFFFF;" parent="1" vertex="1">
          <mxGeometry x="204" y="1030.5" width="40" height="100" as="geometry" />
        </mxCell>
        <mxCell id="61" value="BOVEDA" style="strokeColor=#BAC8D3;fillColor=#5d7f99;fontSize=19;strokeWidth=2;horizontal=0;fontFamily=Helvetica;html=1;labelBackgroundColor=none;fontColor=#FFFFFF;" parent="1" vertex="1">
          <mxGeometry x="204" y="1130.5" width="40" height="100" as="geometry" />
        </mxCell>
        <mxCell id="62" value="Lane 2.2" style="strokeColor=#BAC8D3;fillColor=#5d7f99;fontSize=19;strokeWidth=2;horizontal=0;fontFamily=Helvetica;html=1;labelBackgroundColor=none;fontColor=#FFFFFF;" parent="1" vertex="1">
          <mxGeometry x="204" y="1330.5" width="40" height="100" as="geometry" />
        </mxCell>
        <mxCell id="63" value="Lane 2.1" style="strokeColor=#BAC8D3;fillColor=#5d7f99;fontSize=19;strokeWidth=2;horizontal=0;fontFamily=Helvetica;html=1;labelBackgroundColor=none;fontColor=#FFFFFF;" parent="1" vertex="1">
          <mxGeometry x="204" y="1230.5" width="40" height="100" as="geometry" />
        </mxCell>
        <mxCell id="64" value="VENTANILLAS" style="strokeColor=#BAC8D3;fillColor=#23445D;fontSize=24;strokeWidth=2;horizontal=0;fontFamily=Helvetica;html=1;fontColor=#FFFFFF;fontStyle=0" parent="1" vertex="1">
          <mxGeometry x="154" y="1230.5" width="50" height="200" as="geometry" />
        </mxCell>
        <mxCell id="65" value="Lane 3.2" style="strokeColor=#BAC8D3;fillColor=#5d7f99;fontSize=19;strokeWidth=2;horizontal=0;fontFamily=Helvetica;html=1;labelBackgroundColor=none;fontColor=#FFFFFF;" parent="1" vertex="1">
          <mxGeometry x="204" y="1530.5" width="40" height="100" as="geometry" />
        </mxCell>
        <mxCell id="66" value="Lane 3.1" style="strokeColor=#BAC8D3;fillColor=#5d7f99;fontSize=19;strokeWidth=2;horizontal=0;fontFamily=Helvetica;html=1;labelBackgroundColor=none;fontColor=#FFFFFF;" parent="1" vertex="1">
          <mxGeometry x="204" y="1430.5" width="40" height="100" as="geometry" />
        </mxCell>
        <mxCell id="67" value="REPORTERIA" style="strokeColor=#BAC8D3;fillColor=#23445D;fontSize=24;strokeWidth=2;horizontal=0;fontFamily=Helvetica;html=1;fontColor=#FFFFFF;fontStyle=0" parent="1" vertex="1">
          <mxGeometry x="154" y="1430.5" width="50" height="200" as="geometry" />
        </mxCell>
        <mxCell id="68" value="" style="strokeColor=#FFFFFF;fillColor=#BAC8D3;fontSize=18;strokeWidth=2;fontFamily=Helvetica;html=1;opacity=60;" parent="1" vertex="1">
          <mxGeometry x="244" y="930.5" width="646.6666666666666" height="100" as="geometry" />
        </mxCell>
        <mxCell id="69" value="" style="strokeColor=#FFFFFF;fillColor=#BAC8D3;fontSize=18;strokeWidth=2;fontFamily=Helvetica;html=1;opacity=90;" parent="1" vertex="1">
          <mxGeometry x="244" y="1030.5" width="646.6666666666666" height="100" as="geometry" />
        </mxCell>
        <mxCell id="70" value="" style="strokeColor=#FFFFFF;fillColor=#BAC8D3;fontSize=18;strokeWidth=2;fontFamily=Helvetica;html=1;opacity=60;" parent="1" vertex="1">
          <mxGeometry x="244" y="1130.5" width="646.6666666666666" height="100" as="geometry" />
        </mxCell>
        <mxCell id="71" value="" style="strokeColor=#FFFFFF;fillColor=#BAC8D3;fontSize=18;strokeWidth=2;fontFamily=Helvetica;html=1;opacity=90;" parent="1" vertex="1">
          <mxGeometry x="244" y="1230.5" width="646.6666666666666" height="100" as="geometry" />
        </mxCell>
        <mxCell id="72" value="" style="strokeColor=#FFFFFF;fillColor=#BAC8D3;fontSize=18;strokeWidth=2;fontFamily=Helvetica;html=1;opacity=60;" parent="1" vertex="1">
          <mxGeometry x="244" y="1330.5" width="646.6666666666666" height="100" as="geometry" />
        </mxCell>
        <mxCell id="73" value="" style="strokeColor=#FFFFFF;fillColor=#BAC8D3;fontSize=18;strokeWidth=2;fontFamily=Helvetica;html=1;opacity=90;" parent="1" vertex="1">
          <mxGeometry x="244" y="1430.5" width="646.6666666666666" height="100" as="geometry" />
        </mxCell>
        <mxCell id="74" value="" style="strokeColor=#FFFFFF;fillColor=#BAC8D3;fontSize=18;strokeWidth=2;fontFamily=Helvetica;html=1;opacity=60;" parent="1" vertex="1">
          <mxGeometry x="244" y="1530.5" width="646.6666666666666" height="100" as="geometry" />
        </mxCell>
        <mxCell id="75" value="" style="strokeColor=#FFFFFF;fillColor=#BAC8D3;fontSize=18;strokeWidth=2;fontFamily=Helvetica;html=1;opacity=60;" parent="1" vertex="1">
          <mxGeometry x="890.6666666666666" y="930.5" width="647" height="100" as="geometry" />
        </mxCell>
        <mxCell id="76" value="" style="strokeColor=#FFFFFF;fillColor=#BAC8D3;fontSize=18;strokeWidth=2;fontFamily=Helvetica;html=1;opacity=90;" parent="1" vertex="1">
          <mxGeometry x="890.6666666666666" y="1030.5" width="646.6666666666666" height="100" as="geometry" />
        </mxCell>
        <mxCell id="77" value="" style="strokeColor=#FFFFFF;fillColor=#BAC8D3;fontSize=18;strokeWidth=2;fontFamily=Helvetica;html=1;opacity=60;" parent="1" vertex="1">
          <mxGeometry x="890.6666666666666" y="1130.5" width="646.6666666666666" height="100" as="geometry" />
        </mxCell>
        <mxCell id="78" value="" style="strokeColor=#FFFFFF;fillColor=#BAC8D3;fontSize=18;strokeWidth=2;fontFamily=Helvetica;html=1;opacity=90;" parent="1" vertex="1">
          <mxGeometry x="890.6666666666666" y="1230.5" width="646.6666666666666" height="100" as="geometry" />
        </mxCell>
        <mxCell id="79" value="" style="strokeColor=#FFFFFF;fillColor=#BAC8D3;fontSize=18;strokeWidth=2;fontFamily=Helvetica;html=1;opacity=60;" parent="1" vertex="1">
          <mxGeometry x="890.6666666666666" y="1330.5" width="646.6666666666666" height="100" as="geometry" />
        </mxCell>
        <mxCell id="80" value="" style="strokeColor=#FFFFFF;fillColor=#BAC8D3;fontSize=18;strokeWidth=2;fontFamily=Helvetica;html=1;opacity=90;" parent="1" vertex="1">
          <mxGeometry x="890.6666666666666" y="1430.5" width="646.6666666666666" height="100" as="geometry" />
        </mxCell>
        <mxCell id="81" value="" style="strokeColor=#FFFFFF;fillColor=#BAC8D3;fontSize=18;strokeWidth=2;fontFamily=Helvetica;html=1;opacity=60;fontStyle=4" parent="1" vertex="1">
          <mxGeometry x="890.6666666666666" y="1530.5" width="646.6666666666666" height="100" as="geometry" />
        </mxCell>
        <mxCell id="82" value="" style="strokeColor=#FFFFFF;fillColor=#BAC8D3;fontSize=18;strokeWidth=2;fontFamily=Helvetica;html=1;opacity=60;" parent="1" vertex="1">
          <mxGeometry x="1537.3333333333333" y="930.5" width="647" height="100" as="geometry" />
        </mxCell>
        <mxCell id="83" value="" style="strokeColor=#FFFFFF;fillColor=#BAC8D3;fontSize=18;strokeWidth=2;fontFamily=Helvetica;html=1;opacity=90;" parent="1" vertex="1">
          <mxGeometry x="1537.3333333333333" y="1030.5" width="646.6666666666666" height="100" as="geometry" />
        </mxCell>
        <mxCell id="84" value="" style="strokeColor=#FFFFFF;fillColor=#BAC8D3;fontSize=18;strokeWidth=2;fontFamily=Helvetica;html=1;opacity=60;" parent="1" vertex="1">
          <mxGeometry x="1537.3333333333333" y="1130.5" width="646.6666666666666" height="100" as="geometry" />
        </mxCell>
        <mxCell id="85" value="" style="strokeColor=#FFFFFF;fillColor=#BAC8D3;fontSize=18;strokeWidth=2;fontFamily=Helvetica;html=1;opacity=90;" parent="1" vertex="1">
          <mxGeometry x="1537.3333333333333" y="1230.5" width="646.6666666666666" height="100" as="geometry" />
        </mxCell>
        <mxCell id="86" value="" style="strokeColor=#FFFFFF;fillColor=#BAC8D3;fontSize=18;strokeWidth=2;fontFamily=Helvetica;html=1;opacity=60;" parent="1" vertex="1">
          <mxGeometry x="1537.3333333333333" y="1330.5" width="646.6666666666666" height="100" as="geometry" />
        </mxCell>
        <mxCell id="87" value="" style="strokeColor=#FFFFFF;fillColor=#BAC8D3;fontSize=18;strokeWidth=2;fontFamily=Helvetica;html=1;opacity=90;" parent="1" vertex="1">
          <mxGeometry x="1537.3333333333333" y="1430.5" width="646.6666666666666" height="100" as="geometry" />
        </mxCell>
        <mxCell id="88" value="" style="strokeColor=#FFFFFF;fillColor=#BAC8D3;fontSize=18;strokeWidth=2;fontFamily=Helvetica;html=1;opacity=60;fontStyle=4" parent="1" vertex="1">
          <mxGeometry x="1537.3333333333333" y="1530.5" width="646.6666666666666" height="100" as="geometry" />
        </mxCell>
        <mxCell id="89" style="edgeStyle=orthogonalEdgeStyle;rounded=1;jumpStyle=none;html=1;exitX=1;exitY=0.5;entryX=0;entryY=0.5;labelBackgroundColor=#ffffff;startArrow=none;startFill=0;endArrow=classic;jettySize=auto;orthogonalLoop=1;strokeColor=#0C343D;strokeWidth=3;fontFamily=Helvetica;fontSize=11;fontColor=#000000;" parent="1" source="90" target="92" edge="1">
          <mxGeometry relative="1" as="geometry">
            <Array as="points">
              <mxPoint x="422" y="980.5" />
              <mxPoint x="422" y="1180.5" />
            </Array>
          </mxGeometry>
        </mxCell>
        <mxCell id="90" value="" style="rounded=1;fillColor=#23445D;strokeColor=none;strokeWidth=2;fontFamily=Helvetica;html=1;gradientColor=none;" parent="1" vertex="1">
          <mxGeometry x="270.3945578231293" y="955.5" width="127" height="50" as="geometry" />
        </mxCell>
        <mxCell id="91" value="" style="rounded=1;fillColor=#23445D;strokeColor=none;strokeWidth=2;fontFamily=Helvetica;html=1;gradientColor=none;" parent="1" vertex="1">
          <mxGeometry x="715.9047619047619" y="955.5" width="127" height="50" as="geometry" />
        </mxCell>
        <mxCell id="92" value="" style="rounded=1;fillColor=#23445D;strokeColor=none;strokeWidth=2;fontFamily=Helvetica;html=1;gradientColor=none;" parent="1" vertex="1">
          <mxGeometry x="478.3537414965986" y="1155.5" width="127" height="50" as="geometry" />
        </mxCell>
        <mxCell id="93" value="" style="rounded=1;fillColor=#23445D;strokeColor=none;strokeWidth=2;fontFamily=Helvetica;html=1;gradientColor=none;" parent="1" vertex="1">
          <mxGeometry x="715.9047619047619" y="1255.5" width="127" height="50" as="geometry" />
        </mxCell>
        <mxCell id="94" value="" style="rounded=1;fillColor=#23445D;strokeColor=none;strokeWidth=2;fontFamily=Helvetica;html=1;gradientColor=none;" parent="1" vertex="1">
          <mxGeometry x="715.9047619047619" y="1355.5" width="127" height="50" as="geometry" />
        </mxCell>
        <mxCell id="95" value="" style="rounded=1;fillColor=#23445D;strokeColor=none;strokeWidth=2;fontFamily=Helvetica;html=1;gradientColor=none;" parent="1" vertex="1">
          <mxGeometry x="478.3537414965986" y="1455.5" width="127" height="50" as="geometry" />
        </mxCell>
        <mxCell id="96" value="" style="rounded=1;fillColor=#23445D;strokeColor=none;strokeWidth=2;fontFamily=Helvetica;html=1;gradientColor=none;" parent="1" vertex="1">
          <mxGeometry x="478.3537414965986" y="1355.5" width="127" height="50" as="geometry" />
        </mxCell>
        <mxCell id="97" value="" style="rounded=1;fillColor=#23445D;strokeColor=none;strokeWidth=2;fontFamily=Helvetica;html=1;gradientColor=none;" parent="1" vertex="1">
          <mxGeometry x="1161.4149659863945" y="1055.5" width="127" height="50" as="geometry" />
        </mxCell>
        <mxCell id="98" value="" style="rounded=1;fillColor=#23445D;strokeColor=none;strokeWidth=2;fontFamily=Helvetica;html=1;gradientColor=none;" parent="1" vertex="1">
          <mxGeometry x="1372.5714285714284" y="955.5" width="127" height="50" as="geometry" />
        </mxCell>
        <mxCell id="99" value="" style="rounded=1;fillColor=#23445D;strokeColor=none;strokeWidth=2;gradientColor=none;fontFamily=Helvetica;html=1;" parent="1" vertex="1">
          <mxGeometry x="2029.2380952380952" y="1455.5" width="127" height="50" as="geometry" />
        </mxCell>
        <mxCell id="100" value="" style="rounded=1;fillColor=#23445D;strokeColor=none;strokeWidth=2;fontFamily=Helvetica;html=1;gradientColor=none;" parent="1" vertex="1">
          <mxGeometry x="1161.4149659863945" y="1255.5" width="127" height="50" as="geometry" />
        </mxCell>
        <mxCell id="101" value="" style="rounded=1;fillColor=#23445D;strokeColor=none;strokeWidth=2;fontFamily=Helvetica;html=1;gradientColor=none;" parent="1" vertex="1">
          <mxGeometry x="1161.4149659863945" y="1555.5" width="127" height="50" as="geometry" />
        </mxCell>
        <mxCell id="102" value="" style="rounded=1;fillColor=#23445D;strokeColor=none;strokeWidth=2;fontFamily=Helvetica;html=1;gradientColor=none;" parent="1" vertex="1">
          <mxGeometry x="940.2585034013605" y="1455.5" width="127" height="50" as="geometry" />
        </mxCell>
        <mxCell id="103" value="" style="rounded=1;fillColor=#23445D;strokeColor=none;strokeWidth=2;fontFamily=Helvetica;html=1;gradientColor=none;" parent="1" vertex="1">
          <mxGeometry x="1161.4149659863945" y="1455.5" width="127" height="50" as="geometry" />
        </mxCell>
        <mxCell id="104" value="" style="rounded=1;fillColor=#23445D;strokeColor=none;strokeWidth=2;fontFamily=Helvetica;html=1;gradientColor=none;" parent="1" vertex="1">
          <mxGeometry x="940.2585034013605" y="1255.5" width="127" height="50" as="geometry" />
        </mxCell>
        <mxCell id="105" value="" style="rounded=1;fillColor=#23445D;strokeColor=none;strokeWidth=2;fontFamily=Helvetica;html=1;gradientColor=none;" parent="1" vertex="1">
          <mxGeometry x="1372.5714285714284" y="1155.5" width="127" height="50" as="geometry" />
        </mxCell>
        <mxCell id="106" value="" style="rounded=1;fillColor=#23445D;strokeColor=none;strokeWidth=2;gradientColor=none;fontFamily=Helvetica;html=1;" parent="1" vertex="1">
          <mxGeometry x="1586.9251700680272" y="1355.5" width="127" height="50" as="geometry" />
        </mxCell>
        <mxCell id="107" value="" style="rounded=1;fillColor=#23445D;strokeColor=none;strokeWidth=2;gradientColor=none;fontFamily=Helvetica;html=1;" parent="1" vertex="1">
          <mxGeometry x="1808.0816326530612" y="1355.5" width="127" height="50" as="geometry" />
        </mxCell>
        <mxCell id="108" value="" style="rounded=1;fillColor=#23445D;strokeColor=none;strokeWidth=2;gradientColor=none;fontFamily=Helvetica;html=1;" parent="1" vertex="1">
          <mxGeometry x="1573.7278911564624" y="1055.5" width="127" height="50" as="geometry" />
        </mxCell>
        <mxCell id="109" value="" style="rounded=1;fillColor=#23445D;strokeColor=none;strokeWidth=2;gradientColor=none;fontFamily=Helvetica;html=1;" parent="1" vertex="1">
          <mxGeometry x="1586.9251700680272" y="1455.5" width="127" height="50" as="geometry" />
        </mxCell>
        <mxCell id="110" value="" style="rounded=1;fillColor=#23445D;strokeColor=none;strokeWidth=2;gradientColor=none;fontFamily=Helvetica;html=1;" parent="1" vertex="1">
          <mxGeometry x="1808.0816326530612" y="1555.5" width="127" height="50" as="geometry" />
        </mxCell>
        <mxCell id="111" value="" style="rounded=1;fillColor=#23445D;strokeColor=none;strokeWidth=2;gradientColor=none;fontFamily=Helvetica;html=1;" parent="1" vertex="1">
          <mxGeometry x="1808.0816326530612" y="955.5" width="127" height="50" as="geometry" />
        </mxCell>
        <mxCell id="112" value="" style="edgeStyle=elbowEdgeStyle;elbow=horizontal;strokeWidth=3;strokeColor=#0C343D;fontFamily=Helvetica;html=1;" parent="1" source="90" target="96" edge="1">
          <mxGeometry x="6.448979591836746" y="830.5" width="131.97278911564624" height="100" as="geometry">
            <mxPoint x="6.448979591836746" y="930.5" as="sourcePoint" />
            <mxPoint x="138.421768707483" y="830.5" as="targetPoint" />
            <Array as="points">
              <mxPoint x="422" y="1193.5" />
            </Array>
          </mxGeometry>
        </mxCell>
        <mxCell id="113" value="" style="edgeStyle=elbowEdgeStyle;elbow=horizontal;strokeWidth=3;strokeColor=#0C343D;fontFamily=Helvetica;html=1;" parent="1" source="90" target="95" edge="1">
          <mxGeometry x="6.448979591836746" y="830.5" width="131.97278911564624" height="100" as="geometry">
            <mxPoint x="6.448979591836746" y="930.5" as="sourcePoint" />
            <mxPoint x="138.421768707483" y="830.5" as="targetPoint" />
            <Array as="points">
              <mxPoint x="422" y="1102.5" />
            </Array>
          </mxGeometry>
        </mxCell>
        <mxCell id="114" value="" style="edgeStyle=elbowEdgeStyle;elbow=horizontal;strokeWidth=3;strokeColor=#0C343D;fontFamily=Helvetica;html=1;" parent="1" source="92" target="91" edge="1">
          <mxGeometry x="6.448979591836746" y="830.5" width="131.97278911564624" height="100" as="geometry">
            <mxPoint x="6.448979591836746" y="930.5" as="sourcePoint" />
            <mxPoint x="138.421768707483" y="830.5" as="targetPoint" />
          </mxGeometry>
        </mxCell>
        <mxCell id="115" value="" style="edgeStyle=elbowEdgeStyle;elbow=horizontal;strokeWidth=3;strokeColor=#0C343D;fontFamily=Helvetica;html=1;" parent="1" source="92" target="93" edge="1">
          <mxGeometry x="6.448979591836746" y="830.5" width="131.97278911564624" height="100" as="geometry">
            <mxPoint x="6.448979591836746" y="930.5" as="sourcePoint" />
            <mxPoint x="138.421768707483" y="830.5" as="targetPoint" />
          </mxGeometry>
        </mxCell>
        <mxCell id="116" value="" style="edgeStyle=elbowEdgeStyle;elbow=horizontal;strokeWidth=3;strokeColor=#0C343D;fontFamily=Helvetica;html=1;" parent="1" source="96" target="93" edge="1">
          <mxGeometry x="6.448979591836746" y="830.5" width="131.97278911564624" height="100" as="geometry">
            <mxPoint x="6.448979591836746" y="930.5" as="sourcePoint" />
            <mxPoint x="138.421768707483" y="830.5" as="targetPoint" />
          </mxGeometry>
        </mxCell>
        <mxCell id="117" value="" style="edgeStyle=elbowEdgeStyle;elbow=horizontal;strokeWidth=3;strokeColor=#0C343D;fontFamily=Helvetica;html=1;" parent="1" source="96" target="94" edge="1">
          <mxGeometry x="6.448979591836746" y="830.5" width="131.97278911564624" height="100" as="geometry">
            <mxPoint x="6.448979591836746" y="930.5" as="sourcePoint" />
            <mxPoint x="138.421768707483" y="830.5" as="targetPoint" />
          </mxGeometry>
        </mxCell>
        <mxCell id="118" value="" style="edgeStyle=elbowEdgeStyle;elbow=horizontal;strokeWidth=3;strokeColor=#0C343D;fontFamily=Helvetica;html=1;" parent="1" source="95" target="94" edge="1">
          <mxGeometry x="6.448979591836746" y="830.5" width="131.97278911564624" height="100" as="geometry">
            <mxPoint x="6.448979591836746" y="930.5" as="sourcePoint" />
            <mxPoint x="138.421768707483" y="830.5" as="targetPoint" />
            <Array as="points">
              <mxPoint x="668.952380952381" y="1434.5" />
            </Array>
          </mxGeometry>
        </mxCell>
        <mxCell id="119" value="" style="edgeStyle=elbowEdgeStyle;elbow=horizontal;strokeWidth=3;strokeColor=#0C343D;fontFamily=Helvetica;html=1;" parent="1" source="91" target="97" edge="1">
          <mxGeometry x="6.448979591836746" y="830.5" width="131.97278911564624" height="100" as="geometry">
            <mxPoint x="6.448979591836746" y="930.5" as="sourcePoint" />
            <mxPoint x="138.421768707483" y="830.5" as="targetPoint" />
          </mxGeometry>
        </mxCell>
        <mxCell id="120" value="" style="edgeStyle=elbowEdgeStyle;elbow=horizontal;strokeWidth=3;strokeColor=#0C343D;fontFamily=Helvetica;html=1;" parent="1" source="93" target="104" edge="1">
          <mxGeometry x="6.448979591836746" y="830.5" width="131.97278911564624" height="100" as="geometry">
            <mxPoint x="6.448979591836746" y="930.5" as="sourcePoint" />
            <mxPoint x="138.421768707483" y="830.5" as="targetPoint" />
          </mxGeometry>
        </mxCell>
        <mxCell id="121" value="" style="edgeStyle=elbowEdgeStyle;elbow=horizontal;strokeWidth=3;strokeColor=#0C343D;fontFamily=Helvetica;html=1;" parent="1" source="104" target="100" edge="1">
          <mxGeometry x="6.448979591836746" y="830.5" width="131.97278911564624" height="100" as="geometry">
            <mxPoint x="6.448979591836746" y="930.5" as="sourcePoint" />
            <mxPoint x="138.421768707483" y="830.5" as="targetPoint" />
          </mxGeometry>
        </mxCell>
        <mxCell id="122" value="" style="edgeStyle=elbowEdgeStyle;elbow=horizontal;strokeWidth=3;strokeColor=#0C343D;fontFamily=Helvetica;html=1;" parent="1" source="91" target="98" edge="1">
          <mxGeometry x="6.448979591836746" y="830.5" width="131.97278911564624" height="100" as="geometry">
            <mxPoint x="6.448979591836746" y="930.5" as="sourcePoint" />
            <mxPoint x="138.421768707483" y="830.5" as="targetPoint" />
          </mxGeometry>
        </mxCell>
        <mxCell id="123" value="" style="edgeStyle=elbowEdgeStyle;elbow=horizontal;strokeWidth=3;strokeColor=#0C343D;fontFamily=Helvetica;html=1;" parent="1" source="94" target="102" edge="1">
          <mxGeometry x="6.448979591836746" y="830.5" width="131.97278911564624" height="100" as="geometry">
            <mxPoint x="6.448979591836746" y="930.5" as="sourcePoint" />
            <mxPoint x="138.421768707483" y="830.5" as="targetPoint" />
            <Array as="points">
              <mxPoint x="877.4693877551019" y="1430.5" />
            </Array>
          </mxGeometry>
        </mxCell>
        <mxCell id="124" value="" style="edgeStyle=elbowEdgeStyle;elbow=horizontal;strokeWidth=3;strokeColor=#0C343D;fontFamily=Helvetica;html=1;" parent="1" source="102" target="103" edge="1">
          <mxGeometry x="6.448979591836746" y="830.5" width="131.97278911564624" height="100" as="geometry">
            <mxPoint x="6.448979591836746" y="930.5" as="sourcePoint" />
            <mxPoint x="138.421768707483" y="830.5" as="targetPoint" />
          </mxGeometry>
        </mxCell>
        <mxCell id="125" value="" style="edgeStyle=elbowEdgeStyle;elbow=horizontal;strokeWidth=3;strokeColor=#0C343D;fontFamily=Helvetica;html=1;" parent="1" source="102" target="101" edge="1">
          <mxGeometry x="6.448979591836746" y="830.5" width="131.97278911564624" height="100" as="geometry">
            <mxPoint x="6.448979591836746" y="930.5" as="sourcePoint" />
            <mxPoint x="138.421768707483" y="830.5" as="targetPoint" />
          </mxGeometry>
        </mxCell>
        <mxCell id="126" value="" style="edgeStyle=elbowEdgeStyle;elbow=horizontal;strokeWidth=3;strokeColor=#0C343D;fontFamily=Helvetica;html=1;" parent="1" source="101" target="110" edge="1">
          <mxGeometry x="6.448979591836746" y="830.5" width="131.97278911564624" height="100" as="geometry">
            <mxPoint x="6.448979591836746" y="930.5" as="sourcePoint" />
            <mxPoint x="138.421768707483" y="830.5" as="targetPoint" />
          </mxGeometry>
        </mxCell>
        <mxCell id="127" value="" style="edgeStyle=elbowEdgeStyle;elbow=horizontal;strokeWidth=3;strokeColor=#0C343D;fontFamily=Helvetica;html=1;" parent="1" source="110" target="99" edge="1">
          <mxGeometry x="6.448979591836746" y="830.5" width="131.97278911564624" height="100" as="geometry">
            <mxPoint x="6.448979591836746" y="930.5" as="sourcePoint" />
            <mxPoint x="138.421768707483" y="830.5" as="targetPoint" />
          </mxGeometry>
        </mxCell>
        <mxCell id="128" value="" style="edgeStyle=elbowEdgeStyle;elbow=horizontal;strokeWidth=3;strokeColor=#0C343D;fontFamily=Helvetica;html=1;" parent="1" source="108" target="99" edge="1">
          <mxGeometry x="6.448979591836746" y="830.5" width="131.97278911564624" height="100" as="geometry">
            <mxPoint x="6.448979591836746" y="930.5" as="sourcePoint" />
            <mxPoint x="138.421768707483" y="830.5" as="targetPoint" />
            <Array as="points">
              <mxPoint x="1776" y="1280.5" />
            </Array>
          </mxGeometry>
        </mxCell>
        <mxCell id="129" value="" style="edgeStyle=elbowEdgeStyle;elbow=horizontal;strokeWidth=3;strokeColor=#0C343D;fontFamily=Helvetica;html=1;" parent="1" source="109" target="110" edge="1">
          <mxGeometry x="6.448979591836746" y="830.5" width="131.97278911564624" height="100" as="geometry">
            <mxPoint x="6.448979591836746" y="930.5" as="sourcePoint" />
            <mxPoint x="138.421768707483" y="830.5" as="targetPoint" />
          </mxGeometry>
        </mxCell>
        <mxCell id="130" value="" style="edgeStyle=elbowEdgeStyle;elbow=horizontal;strokeWidth=3;strokeColor=#0C343D;fontFamily=Helvetica;html=1;" parent="1" source="103" target="106" edge="1">
          <mxGeometry x="6.448979591836746" y="830.5" width="131.97278911564624" height="100" as="geometry">
            <mxPoint x="6.448979591836746" y="930.5" as="sourcePoint" />
            <mxPoint x="138.421768707483" y="830.5" as="targetPoint" />
          </mxGeometry>
        </mxCell>
        <mxCell id="131" value="" style="edgeStyle=elbowEdgeStyle;elbow=horizontal;strokeWidth=3;strokeColor=#0C343D;fontFamily=Helvetica;html=1;" parent="1" source="103" target="109" edge="1">
          <mxGeometry x="6.448979591836746" y="830.5" width="131.97278911564624" height="100" as="geometry">
            <mxPoint x="6.448979591836746" y="930.5" as="sourcePoint" />
            <mxPoint x="138.421768707483" y="830.5" as="targetPoint" />
          </mxGeometry>
        </mxCell>
        <mxCell id="132" value="" style="edgeStyle=elbowEdgeStyle;elbow=horizontal;strokeWidth=3;strokeColor=#0C343D;fontFamily=Helvetica;html=1;" parent="1" source="100" target="105" edge="1">
          <mxGeometry x="6.448979591836746" y="830.5" width="131.97278911564624" height="100" as="geometry">
            <mxPoint x="6.448979591836746" y="930.5" as="sourcePoint" />
            <mxPoint x="138.421768707483" y="830.5" as="targetPoint" />
          </mxGeometry>
        </mxCell>
        <mxCell id="133" value="" style="edgeStyle=elbowEdgeStyle;elbow=horizontal;strokeWidth=3;strokeColor=#0C343D;fontFamily=Helvetica;html=1;" parent="1" source="97" target="108" edge="1">
          <mxGeometry x="6.448979591836746" y="830.5" width="131.97278911564624" height="100" as="geometry">
            <mxPoint x="6.448979591836746" y="930.5" as="sourcePoint" />
            <mxPoint x="138.421768707483" y="830.5" as="targetPoint" />
          </mxGeometry>
        </mxCell>
        <mxCell id="134" value="" style="edgeStyle=elbowEdgeStyle;elbow=horizontal;strokeWidth=3;strokeColor=#0C343D;fontFamily=Helvetica;html=1;" parent="1" source="98" target="108" edge="1">
          <mxGeometry x="6.448979591836746" y="830.5" width="131.97278911564624" height="100" as="geometry">
            <mxPoint x="6.448979591836746" y="930.5" as="sourcePoint" />
            <mxPoint x="138.421768707483" y="830.5" as="targetPoint" />
            <Array as="points">
              <mxPoint x="1524.1360544217687" y="1030.5" />
            </Array>
          </mxGeometry>
        </mxCell>
        <mxCell id="135" value="" style="edgeStyle=elbowEdgeStyle;elbow=horizontal;strokeWidth=3;strokeColor=#0C343D;fontFamily=Helvetica;html=1;" parent="1" source="98" target="111" edge="1">
          <mxGeometry x="6.448979591836746" y="830.5" width="131.97278911564624" height="100" as="geometry">
            <mxPoint x="6.448979591836746" y="930.5" as="sourcePoint" />
            <mxPoint x="138.421768707483" y="830.5" as="targetPoint" />
          </mxGeometry>
        </mxCell>
        <mxCell id="136" value="" style="edgeStyle=elbowEdgeStyle;elbow=horizontal;strokeWidth=3;strokeColor=#0C343D;fontFamily=Helvetica;html=1;" parent="1" source="111" target="99" edge="1">
          <mxGeometry x="6.448979591836746" y="830.5" width="131.97278911564624" height="100" as="geometry">
            <mxPoint x="6.448979591836746" y="930.5" as="sourcePoint" />
            <mxPoint x="138.421768707483" y="830.5" as="targetPoint" />
          </mxGeometry>
        </mxCell>
        <mxCell id="137" value="" style="edgeStyle=elbowEdgeStyle;elbow=horizontal;strokeWidth=3;strokeColor=#0C343D;fontFamily=Helvetica;html=1;" parent="1" source="107" target="99" edge="1">
          <mxGeometry x="6.448979591836746" y="830.5" width="131.97278911564624" height="100" as="geometry">
            <mxPoint x="6.448979591836746" y="930.5" as="sourcePoint" />
            <mxPoint x="138.421768707483" y="830.5" as="targetPoint" />
          </mxGeometry>
        </mxCell>
        <mxCell id="138" value="" style="edgeStyle=elbowEdgeStyle;elbow=horizontal;strokeWidth=3;strokeColor=#0C343D;fontFamily=Helvetica;html=1;" parent="1" source="106" target="107" edge="1">
          <mxGeometry x="6.448979591836746" y="830.5" width="131.97278911564624" height="100" as="geometry">
            <mxPoint x="6.448979591836746" y="930.5" as="sourcePoint" />
            <mxPoint x="138.421768707483" y="830.5" as="targetPoint" />
          </mxGeometry>
        </mxCell>
        <mxCell id="139" value="" style="edgeStyle=elbowEdgeStyle;elbow=horizontal;strokeWidth=3;strokeColor=#0C343D;fontFamily=Helvetica;html=1;" parent="1" source="105" target="106" edge="1">
          <mxGeometry x="6.448979591836746" y="830.5" width="131.97278911564624" height="100" as="geometry">
            <mxPoint x="6.448979591836746" y="930.5" as="sourcePoint" />
            <mxPoint x="138.421768707483" y="830.5" as="targetPoint" />
            <Array as="points">
              <mxPoint x="1524.1360544217687" y="1280.5" />
            </Array>
          </mxGeometry>
        </mxCell>
        <mxCell id="140" value="" style="group" parent="1" vertex="1" connectable="0">
          <mxGeometry x="240" y="900" width="646.6666666666666" height="40" as="geometry" />
        </mxCell>
        <mxCell id="141" value="MIGRACION FENIX A FITBANK" style="strokeColor=#BAC8D3;fillColor=#5d7f99;fontSize=19;strokeWidth=2;fontFamily=Helvetica;html=1;labelBackgroundColor=none;fontColor=#FFFFFF;" parent="140" vertex="1">
          <mxGeometry width="646.6656362699642" height="40" as="geometry" />
        </mxCell>
        <mxCell id="142" value="MIGRACION ATMS A FITBANK" style="strokeColor=#BAC8D3;fillColor=#5d7f99;fontSize=19;strokeWidth=2;fontFamily=Helvetica;html=1;labelBackgroundColor=none;fontColor=#FFFFFF;" parent="140" vertex="1">
          <mxGeometry x="646.6656362699642" width="646.6656362699642" height="40" as="geometry" />
        </mxCell>
        <mxCell id="143" value="Milestone 3" style="strokeColor=#BAC8D3;fillColor=#5d7f99;fontSize=19;strokeWidth=2;fontFamily=Helvetica;html=1;labelBackgroundColor=none;fontColor=#FFFFFF;" parent="140" vertex="1">
          <mxGeometry x="1293.3312725399282" width="646.6666666666666" height="40" as="geometry" />
        </mxCell>
      </root>
    </mxGraphModel>
  </diagram>
  <diagram id="gg17uAuB2bL-8LW6y9lc" name="Página-2">
    <mxGraphModel dx="1120" dy="-343" grid="1" gridSize="10" guides="1" tooltips="1" connect="1" arrows="1" fold="1" page="1" pageScale="1" pageWidth="1169" pageHeight="827" math="0" shadow="0">
      <root>
        <mxCell id="NUqxxVerFkx9y87lDyha-0" />
        <mxCell id="NUqxxVerFkx9y87lDyha-1" parent="NUqxxVerFkx9y87lDyha-0" />
        <mxCell id="8A9vrrkWSmD-82M5Jxp4-0" value="CONTABILIDAD" style="strokeColor=#BAC8D3;fillColor=#23445D;fontSize=24;strokeWidth=2;fontFamily=Helvetica;html=1;fontColor=#FFFFFF;fontStyle=0;spacingBottom=8;spacingRight=0;spacingLeft=83;" parent="NUqxxVerFkx9y87lDyha-1" vertex="1">
          <mxGeometry x="154" y="850.5" width="2030" height="80" as="geometry" />
        </mxCell>
        <mxCell id="8A9vrrkWSmD-82M5Jxp4-1" value="&lt;font style=&quot;font-size: 14px&quot;&gt;SALDOS DE LA 11 AL MODULO 3&lt;/font&gt;" style="strokeColor=#BAC8D3;fillColor=#23445D;fontSize=24;strokeWidth=2;horizontal=0;fontFamily=Helvetica;html=1;fontColor=#FFFFFF;fontStyle=0" parent="NUqxxVerFkx9y87lDyha-1" vertex="1">
          <mxGeometry x="154" y="930.5" width="50" height="300" as="geometry" />
        </mxCell>
        <mxCell id="8A9vrrkWSmD-82M5Jxp4-2" value="ATM" style="strokeColor=#BAC8D3;fillColor=#5d7f99;fontSize=19;strokeWidth=2;horizontal=0;fontFamily=Helvetica;html=1;labelBackgroundColor=none;fontColor=#FFFFFF;" parent="NUqxxVerFkx9y87lDyha-1" vertex="1">
          <mxGeometry x="204" y="930.5" width="40" height="100" as="geometry" />
        </mxCell>
        <mxCell id="8A9vrrkWSmD-82M5Jxp4-3" value="v 1.0" style="strokeColor=#BAC8D3;fillColor=#5d7f99;fontSize=19;strokeWidth=2;fontFamily=Helvetica;html=1;labelBackgroundColor=none;fontColor=#FFFFFF;" parent="NUqxxVerFkx9y87lDyha-1" vertex="1">
          <mxGeometry x="154" y="850.5" width="90" height="80" as="geometry" />
        </mxCell>
        <mxCell id="8A9vrrkWSmD-82M5Jxp4-5" value="&lt;font style=&quot;font-size: 14px&quot;&gt;VENTANILLA&lt;/font&gt;" style="strokeColor=#BAC8D3;fillColor=#5d7f99;fontSize=19;strokeWidth=2;horizontal=0;fontFamily=Helvetica;html=1;labelBackgroundColor=none;fontColor=#FFFFFF;" parent="NUqxxVerFkx9y87lDyha-1" vertex="1">
          <mxGeometry x="204" y="1030.5" width="40" height="109.5" as="geometry" />
        </mxCell>
        <mxCell id="8A9vrrkWSmD-82M5Jxp4-6" value="BOVEDA" style="strokeColor=#BAC8D3;fillColor=#5d7f99;fontSize=19;strokeWidth=2;horizontal=0;fontFamily=Helvetica;html=1;labelBackgroundColor=none;fontColor=#FFFFFF;" parent="NUqxxVerFkx9y87lDyha-1" vertex="1">
          <mxGeometry x="204" y="1130.5" width="40" height="100" as="geometry" />
        </mxCell>
        <mxCell id="8A9vrrkWSmD-82M5Jxp4-8" value="Lane 2.1" style="strokeColor=#BAC8D3;fillColor=#5d7f99;fontSize=19;strokeWidth=2;horizontal=0;fontFamily=Helvetica;html=1;labelBackgroundColor=none;fontColor=#FFFFFF;" parent="NUqxxVerFkx9y87lDyha-1" vertex="1">
          <mxGeometry x="204" y="1230.5" width="40" height="100" as="geometry" />
        </mxCell>
        <mxCell id="8A9vrrkWSmD-82M5Jxp4-9" value="VENTANILLAS" style="strokeColor=#BAC8D3;fillColor=#23445D;fontSize=24;strokeWidth=2;horizontal=0;fontFamily=Helvetica;html=1;fontColor=#FFFFFF;fontStyle=0" parent="NUqxxVerFkx9y87lDyha-1" vertex="1">
          <mxGeometry x="154" y="1230.5" width="50" height="200" as="geometry" />
        </mxCell>
        <mxCell id="8A9vrrkWSmD-82M5Jxp4-14" value="" style="strokeColor=#FFFFFF;fillColor=#BAC8D3;fontSize=18;strokeWidth=2;fontFamily=Helvetica;html=1;opacity=90;" parent="NUqxxVerFkx9y87lDyha-1" vertex="1">
          <mxGeometry x="244" y="1030.5" width="646.6666666666666" height="100" as="geometry" />
        </mxCell>
        <mxCell id="8A9vrrkWSmD-82M5Jxp4-15" value="" style="strokeColor=#FFFFFF;fillColor=#BAC8D3;fontSize=18;strokeWidth=2;fontFamily=Helvetica;html=1;opacity=60;" parent="NUqxxVerFkx9y87lDyha-1" vertex="1">
          <mxGeometry x="244" y="1130.5" width="646.6666666666666" height="100" as="geometry" />
        </mxCell>
        <mxCell id="8A9vrrkWSmD-82M5Jxp4-16" value="" style="strokeColor=#FFFFFF;fillColor=#BAC8D3;fontSize=18;strokeWidth=2;fontFamily=Helvetica;html=1;opacity=90;" parent="NUqxxVerFkx9y87lDyha-1" vertex="1">
          <mxGeometry x="244" y="1230.5" width="646.6666666666666" height="100" as="geometry" />
        </mxCell>
        <mxCell id="8A9vrrkWSmD-82M5Jxp4-20" value="" style="strokeColor=#FFFFFF;fillColor=#BAC8D3;fontSize=18;strokeWidth=2;fontFamily=Helvetica;html=1;opacity=60;" parent="NUqxxVerFkx9y87lDyha-1" vertex="1">
          <mxGeometry x="890.6666666666666" y="930.5" width="647" height="100" as="geometry" />
        </mxCell>
        <mxCell id="8A9vrrkWSmD-82M5Jxp4-21" value="" style="strokeColor=#FFFFFF;fillColor=#BAC8D3;fontSize=18;strokeWidth=2;fontFamily=Helvetica;html=1;opacity=90;" parent="NUqxxVerFkx9y87lDyha-1" vertex="1">
          <mxGeometry x="890.6666666666666" y="1030.5" width="646.6666666666666" height="100" as="geometry" />
        </mxCell>
        <mxCell id="8A9vrrkWSmD-82M5Jxp4-22" value="" style="strokeColor=#FFFFFF;fillColor=#BAC8D3;fontSize=18;strokeWidth=2;fontFamily=Helvetica;html=1;opacity=60;" parent="NUqxxVerFkx9y87lDyha-1" vertex="1">
          <mxGeometry x="890.6666666666666" y="1130.5" width="646.6666666666666" height="100" as="geometry" />
        </mxCell>
        <mxCell id="8A9vrrkWSmD-82M5Jxp4-23" value="" style="strokeColor=#FFFFFF;fillColor=#BAC8D3;fontSize=18;strokeWidth=2;fontFamily=Helvetica;html=1;opacity=90;" parent="NUqxxVerFkx9y87lDyha-1" vertex="1">
          <mxGeometry x="890.6666666666666" y="1230.5" width="646.6666666666666" height="100" as="geometry" />
        </mxCell>
        <mxCell id="8A9vrrkWSmD-82M5Jxp4-35" value="Cierre de caja&lt;br&gt;Tarea: Desarrollar &lt;br&gt;Transacción de Cierre de Caja&lt;br&gt;Donde: Core" style="rounded=1;fillColor=#23445D;strokeColor=none;strokeWidth=2;fontFamily=Helvetica;html=1;gradientColor=none;" parent="NUqxxVerFkx9y87lDyha-1" vertex="1">
          <mxGeometry x="260" y="1035.5" width="180" height="90" as="geometry" />
        </mxCell>
        <mxCell id="8A9vrrkWSmD-82M5Jxp4-36" value="" style="rounded=1;fillColor=#23445D;strokeColor=none;strokeWidth=2;fontFamily=Helvetica;html=1;gradientColor=none;" parent="NUqxxVerFkx9y87lDyha-1" vertex="1">
          <mxGeometry x="920.004761904762" y="955.5" width="127" height="50" as="geometry" />
        </mxCell>
        <mxCell id="8A9vrrkWSmD-82M5Jxp4-37" value="Reporte de cuadre de caja" style="rounded=1;fillColor=#23445D;strokeColor=none;strokeWidth=2;fontFamily=Helvetica;html=1;gradientColor=none;" parent="NUqxxVerFkx9y87lDyha-1" vertex="1">
          <mxGeometry x="530" y="1040" width="145.35" height="50" as="geometry" />
        </mxCell>
        <mxCell id="8A9vrrkWSmD-82M5Jxp4-38" value="" style="rounded=1;fillColor=#23445D;strokeColor=none;strokeWidth=2;fontFamily=Helvetica;html=1;gradientColor=none;" parent="NUqxxVerFkx9y87lDyha-1" vertex="1">
          <mxGeometry x="715.9047619047619" y="1255.5" width="127" height="50" as="geometry" />
        </mxCell>
        <mxCell id="8A9vrrkWSmD-82M5Jxp4-42" value="" style="rounded=1;fillColor=#23445D;strokeColor=none;strokeWidth=2;fontFamily=Helvetica;html=1;gradientColor=none;" parent="NUqxxVerFkx9y87lDyha-1" vertex="1">
          <mxGeometry x="1161.4149659863945" y="1055.5" width="127" height="50" as="geometry" />
        </mxCell>
        <mxCell id="8A9vrrkWSmD-82M5Jxp4-43" value="" style="rounded=1;fillColor=#23445D;strokeColor=none;strokeWidth=2;fontFamily=Helvetica;html=1;gradientColor=none;" parent="NUqxxVerFkx9y87lDyha-1" vertex="1">
          <mxGeometry x="1372.5714285714284" y="955.5" width="127" height="50" as="geometry" />
        </mxCell>
        <mxCell id="8A9vrrkWSmD-82M5Jxp4-45" value="" style="rounded=1;fillColor=#23445D;strokeColor=none;strokeWidth=2;fontFamily=Helvetica;html=1;gradientColor=none;" parent="NUqxxVerFkx9y87lDyha-1" vertex="1">
          <mxGeometry x="1161.4149659863945" y="1255.5" width="127" height="50" as="geometry" />
        </mxCell>
        <mxCell id="8A9vrrkWSmD-82M5Jxp4-49" value="" style="rounded=1;fillColor=#23445D;strokeColor=none;strokeWidth=2;fontFamily=Helvetica;html=1;gradientColor=none;" parent="NUqxxVerFkx9y87lDyha-1" vertex="1">
          <mxGeometry x="940.2585034013605" y="1255.5" width="127" height="50" as="geometry" />
        </mxCell>
        <mxCell id="8A9vrrkWSmD-82M5Jxp4-50" value="" style="rounded=1;fillColor=#23445D;strokeColor=none;strokeWidth=2;fontFamily=Helvetica;html=1;gradientColor=none;" parent="NUqxxVerFkx9y87lDyha-1" vertex="1">
          <mxGeometry x="1372.5714285714284" y="1155.5" width="127" height="50" as="geometry" />
        </mxCell>
        <mxCell id="8A9vrrkWSmD-82M5Jxp4-77" value="" style="edgeStyle=elbowEdgeStyle;elbow=horizontal;strokeWidth=3;strokeColor=#0C343D;fontFamily=Helvetica;html=1;" parent="NUqxxVerFkx9y87lDyha-1" source="8A9vrrkWSmD-82M5Jxp4-45" target="8A9vrrkWSmD-82M5Jxp4-50" edge="1">
          <mxGeometry x="6.448979591836746" y="830.5" width="131.97278911564624" height="100" as="geometry">
            <mxPoint x="6.448979591836746" y="930.5" as="sourcePoint" />
            <mxPoint x="138.421768707483" y="830.5" as="targetPoint" />
          </mxGeometry>
        </mxCell>
        <mxCell id="8A9vrrkWSmD-82M5Jxp4-85" value="" style="group" parent="NUqxxVerFkx9y87lDyha-1" vertex="1" connectable="0">
          <mxGeometry x="243" y="900" width="646.6666666666666" height="40" as="geometry" />
        </mxCell>
        <mxCell id="8A9vrrkWSmD-82M5Jxp4-86" value="MIGRACION FENIX A FITBANK" style="strokeColor=#BAC8D3;fillColor=#5d7f99;fontSize=19;strokeWidth=2;fontFamily=Helvetica;html=1;labelBackgroundColor=none;fontColor=#FFFFFF;" parent="8A9vrrkWSmD-82M5Jxp4-85" vertex="1">
          <mxGeometry width="646.6656362699642" height="40" as="geometry" />
        </mxCell>
        <mxCell id="8A9vrrkWSmD-82M5Jxp4-87" value="MIGRACION ATMS A FITBANK" style="strokeColor=#BAC8D3;fillColor=#5d7f99;fontSize=19;strokeWidth=2;fontFamily=Helvetica;html=1;labelBackgroundColor=none;fontColor=#FFFFFF;" parent="8A9vrrkWSmD-82M5Jxp4-85" vertex="1">
          <mxGeometry x="646.6656362699642" width="646.6656362699642" height="40" as="geometry" />
        </mxCell>
        <mxCell id="8A9vrrkWSmD-82M5Jxp4-88" value="Milestone 3" style="strokeColor=#BAC8D3;fillColor=#5d7f99;fontSize=19;strokeWidth=2;fontFamily=Helvetica;html=1;labelBackgroundColor=none;fontColor=#FFFFFF;" parent="8A9vrrkWSmD-82M5Jxp4-85" vertex="1">
          <mxGeometry x="1293.3312725399282" width="646.6666666666666" height="40" as="geometry" />
        </mxCell>
        <mxCell id="PLUYg9wnXDt5H5ee4bgZ-0" value="Todos las ventanillas deben pasar el dinero a bóveda.&lt;br&gt;Iniciar bóveda desde el fit." style="strokeColor=#FFFFFF;fillColor=#BAC8D3;fontSize=18;strokeWidth=2;fontFamily=Helvetica;html=1;opacity=60;" parent="NUqxxVerFkx9y87lDyha-1" vertex="1">
          <mxGeometry x="242.67" y="940.5" width="647" height="90" as="geometry" />
        </mxCell>
      </root>
    </mxGraphModel>
  </diagram>
  <diagram id="ZPFlBW90KP8krExQLAtz" name="Página-3">
    <mxGraphModel dx="1120" dy="-343" grid="1" gridSize="10" guides="1" tooltips="1" connect="1" arrows="1" fold="1" page="1" pageScale="1" pageWidth="1169" pageHeight="827" math="0" shadow="0">
      <root>
        <mxCell id="E76UDmFxeTw11BlgjUJG-0" />
        <mxCell id="E76UDmFxeTw11BlgjUJG-1" parent="E76UDmFxeTw11BlgjUJG-0" />
        <mxCell id="WsJiufyWivOJSIQ8623V-0" value="CONTABILIDAD" style="strokeColor=#BAC8D3;fillColor=#23445D;fontSize=24;strokeWidth=2;fontFamily=Helvetica;html=1;fontColor=#FFFFFF;fontStyle=0;spacingBottom=8;spacingRight=0;spacingLeft=83;" parent="E76UDmFxeTw11BlgjUJG-1" vertex="1">
          <mxGeometry x="200" y="860.5" width="1994" height="80" as="geometry" />
        </mxCell>
        <mxCell id="WsJiufyWivOJSIQ8623V-1" value="SALDO 11 AL MODULO 3" style="strokeColor=#BAC8D3;fillColor=#23445D;fontSize=24;strokeWidth=2;horizontal=0;fontFamily=Helvetica;html=1;fontColor=#FFFFFF;fontStyle=0" parent="E76UDmFxeTw11BlgjUJG-1" vertex="1">
          <mxGeometry x="204" y="941" width="50" height="300" as="geometry" />
        </mxCell>
        <mxCell id="WsJiufyWivOJSIQ8623V-3" value="v 1.0" style="strokeColor=#BAC8D3;fillColor=#5d7f99;fontSize=19;strokeWidth=2;fontFamily=Helvetica;html=1;labelBackgroundColor=none;fontColor=#FFFFFF;" parent="E76UDmFxeTw11BlgjUJG-1" vertex="1">
          <mxGeometry x="200" y="860.5" width="54" height="80" as="geometry" />
        </mxCell>
        <mxCell id="WsJiufyWivOJSIQ8623V-4" value="" style="edgeStyle=orthogonalEdgeStyle;rounded=0;orthogonalLoop=1;jettySize=auto;html=1;" parent="E76UDmFxeTw11BlgjUJG-1" target="WsJiufyWivOJSIQ8623V-14" edge="1">
          <mxGeometry relative="1" as="geometry">
            <mxPoint x="234.00000000000023" y="1040.5" as="sourcePoint" />
          </mxGeometry>
        </mxCell>
        <mxCell id="WsJiufyWivOJSIQ8623V-9" value="VENTANILLAS" style="strokeColor=#BAC8D3;fillColor=#23445D;fontSize=24;strokeWidth=2;horizontal=0;fontFamily=Helvetica;html=1;fontColor=#FFFFFF;fontStyle=0" parent="E76UDmFxeTw11BlgjUJG-1" vertex="1">
          <mxGeometry x="204" y="1241" width="50" height="200" as="geometry" />
        </mxCell>
        <mxCell id="WsJiufyWivOJSIQ8623V-12" value="REPORTERIA" style="strokeColor=#BAC8D3;fillColor=#23445D;fontSize=24;strokeWidth=2;horizontal=0;fontFamily=Helvetica;html=1;fontColor=#FFFFFF;fontStyle=0" parent="E76UDmFxeTw11BlgjUJG-1" vertex="1">
          <mxGeometry x="202" y="1440.5" width="50" height="200" as="geometry" />
        </mxCell>
        <mxCell id="WsJiufyWivOJSIQ8623V-13" value="" style="strokeColor=#FFFFFF;fillColor=#BAC8D3;fontSize=18;strokeWidth=2;fontFamily=Helvetica;html=1;opacity=60;" parent="E76UDmFxeTw11BlgjUJG-1" vertex="1">
          <mxGeometry x="254" y="940.5" width="646.6666666666666" height="100" as="geometry" />
        </mxCell>
        <mxCell id="WsJiufyWivOJSIQ8623V-14" value="" style="strokeColor=#FFFFFF;fillColor=#BAC8D3;fontSize=18;strokeWidth=2;fontFamily=Helvetica;html=1;opacity=90;" parent="E76UDmFxeTw11BlgjUJG-1" vertex="1">
          <mxGeometry x="254" y="1040.5" width="646.6666666666666" height="100" as="geometry" />
        </mxCell>
        <mxCell id="WsJiufyWivOJSIQ8623V-15" value="" style="strokeColor=#FFFFFF;fillColor=#BAC8D3;fontSize=18;strokeWidth=2;fontFamily=Helvetica;html=1;opacity=60;" parent="E76UDmFxeTw11BlgjUJG-1" vertex="1">
          <mxGeometry x="254" y="1140.5" width="646.6666666666666" height="100" as="geometry" />
        </mxCell>
        <mxCell id="WsJiufyWivOJSIQ8623V-16" value="" style="strokeColor=#FFFFFF;fillColor=#BAC8D3;fontSize=18;strokeWidth=2;fontFamily=Helvetica;html=1;opacity=90;" parent="E76UDmFxeTw11BlgjUJG-1" vertex="1">
          <mxGeometry x="254" y="1240.5" width="646.6666666666666" height="100" as="geometry" />
        </mxCell>
        <mxCell id="WsJiufyWivOJSIQ8623V-17" value="" style="strokeColor=#FFFFFF;fillColor=#BAC8D3;fontSize=18;strokeWidth=2;fontFamily=Helvetica;html=1;opacity=60;" parent="E76UDmFxeTw11BlgjUJG-1" vertex="1">
          <mxGeometry x="254" y="1340.5" width="646.6666666666666" height="100" as="geometry" />
        </mxCell>
        <mxCell id="WsJiufyWivOJSIQ8623V-18" value="" style="strokeColor=#FFFFFF;fillColor=#BAC8D3;fontSize=18;strokeWidth=2;fontFamily=Helvetica;html=1;opacity=90;" parent="E76UDmFxeTw11BlgjUJG-1" vertex="1">
          <mxGeometry x="254" y="1440.5" width="646.6666666666666" height="100" as="geometry" />
        </mxCell>
        <mxCell id="WsJiufyWivOJSIQ8623V-19" value="" style="strokeColor=#FFFFFF;fillColor=#BAC8D3;fontSize=18;strokeWidth=2;fontFamily=Helvetica;html=1;opacity=60;" parent="E76UDmFxeTw11BlgjUJG-1" vertex="1">
          <mxGeometry x="254" y="1540.5" width="646.6666666666666" height="100" as="geometry" />
        </mxCell>
        <mxCell id="WsJiufyWivOJSIQ8623V-20" value="" style="strokeColor=#FFFFFF;fillColor=#BAC8D3;fontSize=18;strokeWidth=2;fontFamily=Helvetica;html=1;opacity=60;" parent="E76UDmFxeTw11BlgjUJG-1" vertex="1">
          <mxGeometry x="900.6666666666666" y="940.5" width="647" height="100" as="geometry" />
        </mxCell>
        <mxCell id="WsJiufyWivOJSIQ8623V-21" value="" style="strokeColor=#FFFFFF;fillColor=#BAC8D3;fontSize=18;strokeWidth=2;fontFamily=Helvetica;html=1;opacity=90;" parent="E76UDmFxeTw11BlgjUJG-1" vertex="1">
          <mxGeometry x="900.6666666666666" y="1040.5" width="646.6666666666666" height="100" as="geometry" />
        </mxCell>
        <mxCell id="WsJiufyWivOJSIQ8623V-22" value="" style="strokeColor=#FFFFFF;fillColor=#BAC8D3;fontSize=18;strokeWidth=2;fontFamily=Helvetica;html=1;opacity=60;" parent="E76UDmFxeTw11BlgjUJG-1" vertex="1">
          <mxGeometry x="900.6666666666666" y="1140.5" width="646.6666666666666" height="100" as="geometry" />
        </mxCell>
        <mxCell id="WsJiufyWivOJSIQ8623V-23" value="" style="strokeColor=#FFFFFF;fillColor=#BAC8D3;fontSize=18;strokeWidth=2;fontFamily=Helvetica;html=1;opacity=90;" parent="E76UDmFxeTw11BlgjUJG-1" vertex="1">
          <mxGeometry x="900.6666666666666" y="1240.5" width="646.6666666666666" height="100" as="geometry" />
        </mxCell>
        <mxCell id="WsJiufyWivOJSIQ8623V-24" value="" style="strokeColor=#FFFFFF;fillColor=#BAC8D3;fontSize=18;strokeWidth=2;fontFamily=Helvetica;html=1;opacity=60;" parent="E76UDmFxeTw11BlgjUJG-1" vertex="1">
          <mxGeometry x="900.6666666666666" y="1340.5" width="646.6666666666666" height="100" as="geometry" />
        </mxCell>
        <mxCell id="WsJiufyWivOJSIQ8623V-25" value="" style="strokeColor=#FFFFFF;fillColor=#BAC8D3;fontSize=18;strokeWidth=2;fontFamily=Helvetica;html=1;opacity=90;" parent="E76UDmFxeTw11BlgjUJG-1" vertex="1">
          <mxGeometry x="900.6666666666666" y="1440.5" width="646.6666666666666" height="100" as="geometry" />
        </mxCell>
        <mxCell id="WsJiufyWivOJSIQ8623V-26" value="" style="strokeColor=#FFFFFF;fillColor=#BAC8D3;fontSize=18;strokeWidth=2;fontFamily=Helvetica;html=1;opacity=60;fontStyle=4" parent="E76UDmFxeTw11BlgjUJG-1" vertex="1">
          <mxGeometry x="900.6666666666666" y="1540.5" width="646.6666666666666" height="100" as="geometry" />
        </mxCell>
        <mxCell id="WsJiufyWivOJSIQ8623V-27" value="" style="strokeColor=#FFFFFF;fillColor=#BAC8D3;fontSize=18;strokeWidth=2;fontFamily=Helvetica;html=1;opacity=60;" parent="E76UDmFxeTw11BlgjUJG-1" vertex="1">
          <mxGeometry x="1547.3333333333333" y="940.5" width="647" height="100" as="geometry" />
        </mxCell>
        <mxCell id="WsJiufyWivOJSIQ8623V-28" value="" style="strokeColor=#FFFFFF;fillColor=#BAC8D3;fontSize=18;strokeWidth=2;fontFamily=Helvetica;html=1;opacity=90;" parent="E76UDmFxeTw11BlgjUJG-1" vertex="1">
          <mxGeometry x="1547.3333333333333" y="1040.5" width="646.6666666666666" height="100" as="geometry" />
        </mxCell>
        <mxCell id="WsJiufyWivOJSIQ8623V-29" value="" style="strokeColor=#FFFFFF;fillColor=#BAC8D3;fontSize=18;strokeWidth=2;fontFamily=Helvetica;html=1;opacity=60;" parent="E76UDmFxeTw11BlgjUJG-1" vertex="1">
          <mxGeometry x="1547.3333333333333" y="1140.5" width="646.6666666666666" height="100" as="geometry" />
        </mxCell>
        <mxCell id="WsJiufyWivOJSIQ8623V-30" value="" style="strokeColor=#FFFFFF;fillColor=#BAC8D3;fontSize=18;strokeWidth=2;fontFamily=Helvetica;html=1;opacity=90;" parent="E76UDmFxeTw11BlgjUJG-1" vertex="1">
          <mxGeometry x="1547.3333333333333" y="1240.5" width="646.6666666666666" height="100" as="geometry" />
        </mxCell>
        <mxCell id="WsJiufyWivOJSIQ8623V-31" value="" style="strokeColor=#FFFFFF;fillColor=#BAC8D3;fontSize=18;strokeWidth=2;fontFamily=Helvetica;html=1;opacity=60;" parent="E76UDmFxeTw11BlgjUJG-1" vertex="1">
          <mxGeometry x="1547.3333333333333" y="1340.5" width="646.6666666666666" height="100" as="geometry" />
        </mxCell>
        <mxCell id="WsJiufyWivOJSIQ8623V-32" value="" style="strokeColor=#FFFFFF;fillColor=#BAC8D3;fontSize=18;strokeWidth=2;fontFamily=Helvetica;html=1;opacity=90;" parent="E76UDmFxeTw11BlgjUJG-1" vertex="1">
          <mxGeometry x="1547.3333333333333" y="1440.5" width="646.6666666666666" height="100" as="geometry" />
        </mxCell>
        <mxCell id="WsJiufyWivOJSIQ8623V-33" value="" style="strokeColor=#FFFFFF;fillColor=#BAC8D3;fontSize=18;strokeWidth=2;fontFamily=Helvetica;html=1;opacity=60;fontStyle=4" parent="E76UDmFxeTw11BlgjUJG-1" vertex="1">
          <mxGeometry x="1547.3333333333333" y="1540.5" width="646.6666666666666" height="100" as="geometry" />
        </mxCell>
        <mxCell id="WsJiufyWivOJSIQ8623V-34" style="edgeStyle=orthogonalEdgeStyle;rounded=1;jumpStyle=none;html=1;exitX=1;exitY=0.5;entryX=0;entryY=0.5;labelBackgroundColor=#ffffff;startArrow=none;startFill=0;endArrow=classic;jettySize=auto;orthogonalLoop=1;strokeColor=#0C343D;strokeWidth=3;fontFamily=Helvetica;fontSize=11;fontColor=#000000;" parent="E76UDmFxeTw11BlgjUJG-1" source="WsJiufyWivOJSIQ8623V-35" target="WsJiufyWivOJSIQ8623V-37" edge="1">
          <mxGeometry relative="1" as="geometry">
            <Array as="points">
              <mxPoint x="432" y="990.5" />
              <mxPoint x="432" y="1190.5" />
            </Array>
          </mxGeometry>
        </mxCell>
        <mxCell id="WsJiufyWivOJSIQ8623V-35" value="" style="rounded=1;fillColor=#23445D;strokeColor=none;strokeWidth=2;fontFamily=Helvetica;html=1;gradientColor=none;" parent="E76UDmFxeTw11BlgjUJG-1" vertex="1">
          <mxGeometry x="280.3945578231293" y="965.5" width="127" height="50" as="geometry" />
        </mxCell>
        <mxCell id="WsJiufyWivOJSIQ8623V-36" value="" style="rounded=1;fillColor=#23445D;strokeColor=none;strokeWidth=2;fontFamily=Helvetica;html=1;gradientColor=none;" parent="E76UDmFxeTw11BlgjUJG-1" vertex="1">
          <mxGeometry x="725.9047619047619" y="965.5" width="127" height="50" as="geometry" />
        </mxCell>
        <mxCell id="WsJiufyWivOJSIQ8623V-37" value="" style="rounded=1;fillColor=#23445D;strokeColor=none;strokeWidth=2;fontFamily=Helvetica;html=1;gradientColor=none;" parent="E76UDmFxeTw11BlgjUJG-1" vertex="1">
          <mxGeometry x="488.3537414965986" y="1165.5" width="127" height="50" as="geometry" />
        </mxCell>
        <mxCell id="WsJiufyWivOJSIQ8623V-38" value="" style="rounded=1;fillColor=#23445D;strokeColor=none;strokeWidth=2;fontFamily=Helvetica;html=1;gradientColor=none;" parent="E76UDmFxeTw11BlgjUJG-1" vertex="1">
          <mxGeometry x="725.9047619047619" y="1265.5" width="127" height="50" as="geometry" />
        </mxCell>
        <mxCell id="WsJiufyWivOJSIQ8623V-41" value="" style="rounded=1;fillColor=#23445D;strokeColor=none;strokeWidth=2;fontFamily=Helvetica;html=1;gradientColor=none;" parent="E76UDmFxeTw11BlgjUJG-1" vertex="1">
          <mxGeometry x="488.3537414965986" y="1365.5" width="127" height="50" as="geometry" />
        </mxCell>
        <mxCell id="WsJiufyWivOJSIQ8623V-42" value="" style="rounded=1;fillColor=#23445D;strokeColor=none;strokeWidth=2;fontFamily=Helvetica;html=1;gradientColor=none;" parent="E76UDmFxeTw11BlgjUJG-1" vertex="1">
          <mxGeometry x="1171.4149659863945" y="1065.5" width="127" height="50" as="geometry" />
        </mxCell>
        <mxCell id="WsJiufyWivOJSIQ8623V-43" value="" style="rounded=1;fillColor=#23445D;strokeColor=none;strokeWidth=2;fontFamily=Helvetica;html=1;gradientColor=none;" parent="E76UDmFxeTw11BlgjUJG-1" vertex="1">
          <mxGeometry x="1382.5714285714284" y="965.5" width="127" height="50" as="geometry" />
        </mxCell>
        <mxCell id="WsJiufyWivOJSIQ8623V-45" value="" style="rounded=1;fillColor=#23445D;strokeColor=none;strokeWidth=2;fontFamily=Helvetica;html=1;gradientColor=none;" parent="E76UDmFxeTw11BlgjUJG-1" vertex="1">
          <mxGeometry x="1171.4149659863945" y="1265.5" width="127" height="50" as="geometry" />
        </mxCell>
        <mxCell id="WsJiufyWivOJSIQ8623V-49" value="" style="rounded=1;fillColor=#23445D;strokeColor=none;strokeWidth=2;fontFamily=Helvetica;html=1;gradientColor=none;" parent="E76UDmFxeTw11BlgjUJG-1" vertex="1">
          <mxGeometry x="950.2585034013605" y="1265.5" width="127" height="50" as="geometry" />
        </mxCell>
        <mxCell id="WsJiufyWivOJSIQ8623V-50" value="" style="rounded=1;fillColor=#23445D;strokeColor=none;strokeWidth=2;fontFamily=Helvetica;html=1;gradientColor=none;" parent="E76UDmFxeTw11BlgjUJG-1" vertex="1">
          <mxGeometry x="1382.5714285714284" y="1165.5" width="127" height="50" as="geometry" />
        </mxCell>
        <mxCell id="WsJiufyWivOJSIQ8623V-51" value="" style="rounded=1;fillColor=#23445D;strokeColor=none;strokeWidth=2;gradientColor=none;fontFamily=Helvetica;html=1;" parent="E76UDmFxeTw11BlgjUJG-1" vertex="1">
          <mxGeometry x="1596.9251700680272" y="1365.5" width="127" height="50" as="geometry" />
        </mxCell>
        <mxCell id="WsJiufyWivOJSIQ8623V-52" value="" style="rounded=1;fillColor=#23445D;strokeColor=none;strokeWidth=2;gradientColor=none;fontFamily=Helvetica;html=1;" parent="E76UDmFxeTw11BlgjUJG-1" vertex="1">
          <mxGeometry x="1818.0816326530612" y="1365.5" width="127" height="50" as="geometry" />
        </mxCell>
        <mxCell id="WsJiufyWivOJSIQ8623V-53" value="" style="rounded=1;fillColor=#23445D;strokeColor=none;strokeWidth=2;gradientColor=none;fontFamily=Helvetica;html=1;" parent="E76UDmFxeTw11BlgjUJG-1" vertex="1">
          <mxGeometry x="1583.7278911564624" y="1065.5" width="127" height="50" as="geometry" />
        </mxCell>
        <mxCell id="WsJiufyWivOJSIQ8623V-56" value="" style="rounded=1;fillColor=#23445D;strokeColor=none;strokeWidth=2;gradientColor=none;fontFamily=Helvetica;html=1;" parent="E76UDmFxeTw11BlgjUJG-1" vertex="1">
          <mxGeometry x="1818.0816326530612" y="965.5" width="127" height="50" as="geometry" />
        </mxCell>
        <mxCell id="WsJiufyWivOJSIQ8623V-57" value="" style="edgeStyle=elbowEdgeStyle;elbow=horizontal;strokeWidth=3;strokeColor=#0C343D;fontFamily=Helvetica;html=1;" parent="E76UDmFxeTw11BlgjUJG-1" source="WsJiufyWivOJSIQ8623V-35" target="WsJiufyWivOJSIQ8623V-41" edge="1">
          <mxGeometry x="16.448979591836746" y="840.5" width="131.97278911564624" height="100" as="geometry">
            <mxPoint x="16.448979591836746" y="940.5" as="sourcePoint" />
            <mxPoint x="148.421768707483" y="840.5" as="targetPoint" />
            <Array as="points">
              <mxPoint x="432" y="1203.5" />
            </Array>
          </mxGeometry>
        </mxCell>
        <mxCell id="WsJiufyWivOJSIQ8623V-59" value="" style="edgeStyle=elbowEdgeStyle;elbow=horizontal;strokeWidth=3;strokeColor=#0C343D;fontFamily=Helvetica;html=1;" parent="E76UDmFxeTw11BlgjUJG-1" source="WsJiufyWivOJSIQ8623V-37" target="WsJiufyWivOJSIQ8623V-36" edge="1">
          <mxGeometry x="16.448979591836746" y="840.5" width="131.97278911564624" height="100" as="geometry">
            <mxPoint x="16.448979591836746" y="940.5" as="sourcePoint" />
            <mxPoint x="148.421768707483" y="840.5" as="targetPoint" />
          </mxGeometry>
        </mxCell>
        <mxCell id="WsJiufyWivOJSIQ8623V-60" value="" style="edgeStyle=elbowEdgeStyle;elbow=horizontal;strokeWidth=3;strokeColor=#0C343D;fontFamily=Helvetica;html=1;" parent="E76UDmFxeTw11BlgjUJG-1" source="WsJiufyWivOJSIQ8623V-37" target="WsJiufyWivOJSIQ8623V-38" edge="1">
          <mxGeometry x="16.448979591836746" y="840.5" width="131.97278911564624" height="100" as="geometry">
            <mxPoint x="16.448979591836746" y="940.5" as="sourcePoint" />
            <mxPoint x="148.421768707483" y="840.5" as="targetPoint" />
          </mxGeometry>
        </mxCell>
        <mxCell id="WsJiufyWivOJSIQ8623V-61" value="" style="edgeStyle=elbowEdgeStyle;elbow=horizontal;strokeWidth=3;strokeColor=#0C343D;fontFamily=Helvetica;html=1;" parent="E76UDmFxeTw11BlgjUJG-1" source="WsJiufyWivOJSIQ8623V-41" target="WsJiufyWivOJSIQ8623V-38" edge="1">
          <mxGeometry x="16.448979591836746" y="840.5" width="131.97278911564624" height="100" as="geometry">
            <mxPoint x="16.448979591836746" y="940.5" as="sourcePoint" />
            <mxPoint x="148.421768707483" y="840.5" as="targetPoint" />
          </mxGeometry>
        </mxCell>
        <mxCell id="WsJiufyWivOJSIQ8623V-62" value="" style="edgeStyle=elbowEdgeStyle;elbow=horizontal;strokeWidth=3;strokeColor=#0C343D;fontFamily=Helvetica;html=1;" parent="E76UDmFxeTw11BlgjUJG-1" source="WsJiufyWivOJSIQ8623V-41" edge="1">
          <mxGeometry x="16.448979591836746" y="840.5" width="131.97278911564624" height="100" as="geometry">
            <mxPoint x="16.448979591836746" y="940.5" as="sourcePoint" />
            <mxPoint x="725.9047619047619" y="1390.5" as="targetPoint" />
          </mxGeometry>
        </mxCell>
        <mxCell id="WsJiufyWivOJSIQ8623V-64" value="" style="edgeStyle=elbowEdgeStyle;elbow=horizontal;strokeWidth=3;strokeColor=#0C343D;fontFamily=Helvetica;html=1;" parent="E76UDmFxeTw11BlgjUJG-1" source="WsJiufyWivOJSIQ8623V-36" target="WsJiufyWivOJSIQ8623V-42" edge="1">
          <mxGeometry x="16.448979591836746" y="840.5" width="131.97278911564624" height="100" as="geometry">
            <mxPoint x="16.448979591836746" y="940.5" as="sourcePoint" />
            <mxPoint x="148.421768707483" y="840.5" as="targetPoint" />
          </mxGeometry>
        </mxCell>
        <mxCell id="WsJiufyWivOJSIQ8623V-65" value="" style="edgeStyle=elbowEdgeStyle;elbow=horizontal;strokeWidth=3;strokeColor=#0C343D;fontFamily=Helvetica;html=1;" parent="E76UDmFxeTw11BlgjUJG-1" source="WsJiufyWivOJSIQ8623V-38" target="WsJiufyWivOJSIQ8623V-49" edge="1">
          <mxGeometry x="16.448979591836746" y="840.5" width="131.97278911564624" height="100" as="geometry">
            <mxPoint x="16.448979591836746" y="940.5" as="sourcePoint" />
            <mxPoint x="148.421768707483" y="840.5" as="targetPoint" />
          </mxGeometry>
        </mxCell>
        <mxCell id="WsJiufyWivOJSIQ8623V-66" value="" style="edgeStyle=elbowEdgeStyle;elbow=horizontal;strokeWidth=3;strokeColor=#0C343D;fontFamily=Helvetica;html=1;" parent="E76UDmFxeTw11BlgjUJG-1" source="WsJiufyWivOJSIQ8623V-49" target="WsJiufyWivOJSIQ8623V-45" edge="1">
          <mxGeometry x="16.448979591836746" y="840.5" width="131.97278911564624" height="100" as="geometry">
            <mxPoint x="16.448979591836746" y="940.5" as="sourcePoint" />
            <mxPoint x="148.421768707483" y="840.5" as="targetPoint" />
          </mxGeometry>
        </mxCell>
        <mxCell id="WsJiufyWivOJSIQ8623V-67" value="" style="edgeStyle=elbowEdgeStyle;elbow=horizontal;strokeWidth=3;strokeColor=#0C343D;fontFamily=Helvetica;html=1;" parent="E76UDmFxeTw11BlgjUJG-1" source="WsJiufyWivOJSIQ8623V-36" target="WsJiufyWivOJSIQ8623V-43" edge="1">
          <mxGeometry x="16.448979591836746" y="840.5" width="131.97278911564624" height="100" as="geometry">
            <mxPoint x="16.448979591836746" y="940.5" as="sourcePoint" />
            <mxPoint x="148.421768707483" y="840.5" as="targetPoint" />
          </mxGeometry>
        </mxCell>
        <mxCell id="WsJiufyWivOJSIQ8623V-77" value="" style="edgeStyle=elbowEdgeStyle;elbow=horizontal;strokeWidth=3;strokeColor=#0C343D;fontFamily=Helvetica;html=1;" parent="E76UDmFxeTw11BlgjUJG-1" source="WsJiufyWivOJSIQ8623V-45" target="WsJiufyWivOJSIQ8623V-50" edge="1">
          <mxGeometry x="16.448979591836746" y="840.5" width="131.97278911564624" height="100" as="geometry">
            <mxPoint x="16.448979591836746" y="940.5" as="sourcePoint" />
            <mxPoint x="148.421768707483" y="840.5" as="targetPoint" />
          </mxGeometry>
        </mxCell>
        <mxCell id="WsJiufyWivOJSIQ8623V-78" value="" style="edgeStyle=elbowEdgeStyle;elbow=horizontal;strokeWidth=3;strokeColor=#0C343D;fontFamily=Helvetica;html=1;" parent="E76UDmFxeTw11BlgjUJG-1" source="WsJiufyWivOJSIQ8623V-42" target="WsJiufyWivOJSIQ8623V-53" edge="1">
          <mxGeometry x="16.448979591836746" y="840.5" width="131.97278911564624" height="100" as="geometry">
            <mxPoint x="16.448979591836746" y="940.5" as="sourcePoint" />
            <mxPoint x="148.421768707483" y="840.5" as="targetPoint" />
          </mxGeometry>
        </mxCell>
        <mxCell id="WsJiufyWivOJSIQ8623V-79" value="" style="edgeStyle=elbowEdgeStyle;elbow=horizontal;strokeWidth=3;strokeColor=#0C343D;fontFamily=Helvetica;html=1;" parent="E76UDmFxeTw11BlgjUJG-1" source="WsJiufyWivOJSIQ8623V-43" target="WsJiufyWivOJSIQ8623V-53" edge="1">
          <mxGeometry x="16.448979591836746" y="840.5" width="131.97278911564624" height="100" as="geometry">
            <mxPoint x="16.448979591836746" y="940.5" as="sourcePoint" />
            <mxPoint x="148.421768707483" y="840.5" as="targetPoint" />
            <Array as="points">
              <mxPoint x="1534.1360544217687" y="1040.5" />
            </Array>
          </mxGeometry>
        </mxCell>
        <mxCell id="WsJiufyWivOJSIQ8623V-80" value="" style="edgeStyle=elbowEdgeStyle;elbow=horizontal;strokeWidth=3;strokeColor=#0C343D;fontFamily=Helvetica;html=1;" parent="E76UDmFxeTw11BlgjUJG-1" source="WsJiufyWivOJSIQ8623V-43" target="WsJiufyWivOJSIQ8623V-56" edge="1">
          <mxGeometry x="16.448979591836746" y="840.5" width="131.97278911564624" height="100" as="geometry">
            <mxPoint x="16.448979591836746" y="940.5" as="sourcePoint" />
            <mxPoint x="148.421768707483" y="840.5" as="targetPoint" />
          </mxGeometry>
        </mxCell>
        <mxCell id="WsJiufyWivOJSIQ8623V-82" value="" style="edgeStyle=elbowEdgeStyle;elbow=horizontal;strokeWidth=3;strokeColor=#0C343D;fontFamily=Helvetica;html=1;" parent="E76UDmFxeTw11BlgjUJG-1" source="WsJiufyWivOJSIQ8623V-52" edge="1">
          <mxGeometry x="16.448979591836746" y="840.5" width="131.97278911564624" height="100" as="geometry">
            <mxPoint x="16.448979591836746" y="940.5" as="sourcePoint" />
            <mxPoint x="2039.2380952380954" y="1490.5" as="targetPoint" />
          </mxGeometry>
        </mxCell>
        <mxCell id="WsJiufyWivOJSIQ8623V-83" value="" style="edgeStyle=elbowEdgeStyle;elbow=horizontal;strokeWidth=3;strokeColor=#0C343D;fontFamily=Helvetica;html=1;" parent="E76UDmFxeTw11BlgjUJG-1" source="WsJiufyWivOJSIQ8623V-51" target="WsJiufyWivOJSIQ8623V-52" edge="1">
          <mxGeometry x="16.448979591836746" y="840.5" width="131.97278911564624" height="100" as="geometry">
            <mxPoint x="16.448979591836746" y="940.5" as="sourcePoint" />
            <mxPoint x="148.421768707483" y="840.5" as="targetPoint" />
          </mxGeometry>
        </mxCell>
        <mxCell id="WsJiufyWivOJSIQ8623V-84" value="" style="edgeStyle=elbowEdgeStyle;elbow=horizontal;strokeWidth=3;strokeColor=#0C343D;fontFamily=Helvetica;html=1;" parent="E76UDmFxeTw11BlgjUJG-1" source="WsJiufyWivOJSIQ8623V-50" target="WsJiufyWivOJSIQ8623V-51" edge="1">
          <mxGeometry x="16.448979591836746" y="840.5" width="131.97278911564624" height="100" as="geometry">
            <mxPoint x="16.448979591836746" y="940.5" as="sourcePoint" />
            <mxPoint x="148.421768707483" y="840.5" as="targetPoint" />
            <Array as="points">
              <mxPoint x="1534.1360544217687" y="1290.5" />
            </Array>
          </mxGeometry>
        </mxCell>
        <mxCell id="WsJiufyWivOJSIQ8623V-85" value="" style="group" parent="E76UDmFxeTw11BlgjUJG-1" vertex="1" connectable="0">
          <mxGeometry x="254" y="920" width="646.6666666666666" height="40" as="geometry" />
        </mxCell>
        <mxCell id="WsJiufyWivOJSIQ8623V-86" value="MIGRACION FENIX A FITBANK" style="strokeColor=#BAC8D3;fillColor=#5d7f99;fontSize=19;strokeWidth=2;fontFamily=Helvetica;html=1;labelBackgroundColor=none;fontColor=#FFFFFF;" parent="WsJiufyWivOJSIQ8623V-85" vertex="1">
          <mxGeometry width="646.6656362699642" height="40" as="geometry" />
        </mxCell>
        <mxCell id="WsJiufyWivOJSIQ8623V-87" value="MIGRACION ATMS A FITBANK" style="strokeColor=#BAC8D3;fillColor=#5d7f99;fontSize=19;strokeWidth=2;fontFamily=Helvetica;html=1;labelBackgroundColor=none;fontColor=#FFFFFF;" parent="WsJiufyWivOJSIQ8623V-85" vertex="1">
          <mxGeometry x="646.6656362699642" width="646.6656362699642" height="40" as="geometry" />
        </mxCell>
        <mxCell id="WsJiufyWivOJSIQ8623V-88" value="Milestone 3" style="strokeColor=#BAC8D3;fillColor=#5d7f99;fontSize=19;strokeWidth=2;fontFamily=Helvetica;html=1;labelBackgroundColor=none;fontColor=#FFFFFF;" parent="WsJiufyWivOJSIQ8623V-85" vertex="1">
          <mxGeometry x="1293.3312725399282" width="646.6666666666666" height="40" as="geometry" />
        </mxCell>
      </root>
    </mxGraphModel>
  </diagram>
  <diagram id="Zn_2Z8tf90bOjVSdfm4l" name="Página-4">
    <mxGraphModel dx="1120" dy="484" grid="1" gridSize="10" guides="1" tooltips="1" connect="1" arrows="1" fold="1" page="1" pageScale="1" pageWidth="1169" pageHeight="827" math="0" shadow="0">
      <root>
        <mxCell id="0" />
        <mxCell id="1" parent="0" />
      </root>
    </mxGraphModel>
  </diagram>
</mxfile>
